<svg width="32" height="32" viewBox="0 0 32 32" fill="none" xmlns="http://www.w3.org/2000/svg">
<g clip-path="url(#clip0_78_44153)">
<path d="M1.99999 14.9095H3.99999V29.9996C3.99999 31.1056 4.89382 31.9996 5.99999 31.9996H12.11C13.2162 31.9996 14.11 31.1056 14.11 29.9996V25.3495C14.11 24.3057 14.9561 23.4595 16 23.4595C16.5054 23.4595 16.9788 23.6555 17.3464 24.0231C17.6918 24.3685 17.89 24.8409 17.89 25.3495V29.9996C17.89 31.1056 18.7838 31.9996 19.89 31.9996H26C27.1062 31.9996 28 31.1056 28 29.9996V14.9095H30C30.8547 14.9095 31.6125 14.3632 31.8919 13.5647L31.8927 13.5623C32.1719 12.7515 31.9069 11.8561 31.2257 11.3339C31.225 11.3334 31.2244 11.3329 31.2237 11.3324L17.2314 0.428425C17.2307 0.427837 17.23 0.42725 17.2292 0.426664C16.5078 -0.146127 15.4921 -0.146128 14.7708 0.426664L0.774299 11.3339C0.0930967 11.8561 -0.171933 12.7515 0.107235 13.5623L0.108063 13.5647C0.387491 14.3632 1.14532 14.9095 1.99999 14.9095Z" fill="white" stroke="black"/>
</g>
<defs>
<clipPath id="clip0_78_44153">
<rect width="32" height="32" fill="white"/>
</clipPath>
</defs>
</svg>
