<svg width="426" height="112" viewBox="0 0 426 112" fill="none" xmlns="http://www.w3.org/2000/svg">
<rect width="426" height="112" rx="56" fill="url(#paint0_linear_33_64846)"/>
<mask id="path-2-outside-1_33_64846" maskUnits="userSpaceOnUse" x="115.5" y="41" width="153" height="39" fill="black">
<rect fill="white" x="115.5" y="41" width="153" height="39"/>
<path d="M131.98 55.96H129.02L135.7 42.76H143.34L133.7 61.64L133.94 58.36V70H126.7V58.36L126.94 61.64L117.3 42.76H125.3L131.98 55.96ZM151.042 70.56C148.962 70.56 147.135 70.12 145.562 69.24C143.989 68.3333 142.749 67.1067 141.842 65.56C140.962 63.9867 140.522 62.2 140.522 60.2C140.522 58.2 140.962 56.4267 141.842 54.88C142.749 53.3067 143.989 52.08 145.562 51.2C147.135 50.2933 148.962 49.84 151.042 49.84C153.122 49.84 154.949 50.2933 156.522 51.2C158.122 52.08 159.362 53.3067 160.242 54.88C161.122 56.4267 161.562 58.2 161.562 60.2C161.562 62.2 161.122 63.9867 160.242 65.56C159.362 67.1067 158.122 68.3333 156.522 69.24C154.949 70.12 153.122 70.56 151.042 70.56ZM151.042 63.48C151.949 63.48 152.709 63.1733 153.322 62.56C153.935 61.9467 154.242 61.1467 154.242 60.16C154.242 59.1733 153.935 58.3867 153.322 57.8C152.709 57.1867 151.949 56.88 151.042 56.88C150.135 56.88 149.375 57.1867 148.762 57.8C148.175 58.3867 147.882 59.1733 147.882 60.16C147.882 61.1467 148.175 61.9467 148.762 62.56C149.375 63.1733 150.135 63.48 151.042 63.48ZM170.672 70.56C169.232 70.56 168.046 70.36 167.112 69.96C166.179 69.5333 165.432 68.96 164.872 68.24C164.339 67.52 163.952 66.68 163.712 65.72C163.499 64.7333 163.392 63.68 163.392 62.56V50.4H170.632V61.32C170.632 62.2 170.792 62.7867 171.112 63.08C171.432 63.3467 171.859 63.48 172.392 63.48C172.739 63.48 173.086 63.44 173.432 63.36C173.779 63.2533 174.152 63.08 174.552 62.84C174.952 62.6 175.392 62.2533 175.872 61.8L177.632 65.32H175.232V50.4H182.512V70H177.192L175.712 65.8L178.472 66.16C177.859 66.8533 177.139 67.5467 176.312 68.24C175.486 68.9067 174.592 69.4667 173.632 69.92C172.699 70.3467 171.712 70.56 170.672 70.56ZM205.169 78.08C204.156 78.08 203.076 77.92 201.929 77.6C200.809 77.28 199.756 76.7467 198.769 76C197.783 75.2533 196.996 74.24 196.409 72.96L196.049 72.16L201.089 69.72C201.729 70.6533 202.343 71.3067 202.929 71.68C203.543 72.0533 204.329 72.24 205.289 72.24C206.223 72.24 207.009 71.9333 207.649 71.32C208.289 70.7067 208.609 69.8133 208.609 68.64V62.52H208.969V56.12H208.609L210.489 50.4H215.849V66.92C215.849 69.24 215.449 71.2267 214.649 72.88C213.849 74.56 212.649 75.84 211.049 76.72C209.476 77.6267 207.516 78.08 205.169 78.08ZM204.169 69.08C202.463 69.08 200.929 68.6667 199.569 67.84C198.236 67.0133 197.169 65.88 196.369 64.44C195.596 62.9733 195.209 61.32 195.209 59.48C195.209 57.64 195.583 56 196.329 54.56C197.103 53.0933 198.156 51.9467 199.489 51.12C200.823 50.2667 202.343 49.84 204.049 49.84C205.596 49.84 206.956 50.2533 208.129 51.08C209.303 51.88 210.223 53 210.889 54.44C211.556 55.88 211.889 57.56 211.889 59.48C211.889 61.5333 211.569 63.28 210.929 64.72C210.316 66.1333 209.423 67.2133 208.249 67.96C207.103 68.7067 205.743 69.08 204.169 69.08ZM205.769 62.68C206.649 62.68 207.396 62.3733 208.009 61.76C208.649 61.12 208.969 60.36 208.969 59.48C208.969 58.5467 208.649 57.7733 208.009 57.16C207.396 56.52 206.649 56.2 205.769 56.2C204.863 56.2 204.103 56.52 203.489 57.16C202.876 57.7733 202.569 58.5467 202.569 59.48C202.569 60.36 202.876 61.12 203.489 61.76C204.103 62.3733 204.863 62.68 205.769 62.68ZM228.503 70.56C226.423 70.56 224.596 70.12 223.023 69.24C221.449 68.3333 220.209 67.1067 219.303 65.56C218.423 63.9867 217.983 62.2 217.983 60.2C217.983 58.2 218.423 56.4267 219.303 54.88C220.209 53.3067 221.449 52.08 223.023 51.2C224.596 50.2933 226.423 49.84 228.503 49.84C230.583 49.84 232.409 50.2933 233.983 51.2C235.583 52.08 236.823 53.3067 237.703 54.88C238.583 56.4267 239.023 58.2 239.023 60.2C239.023 62.2 238.583 63.9867 237.703 65.56C236.823 67.1067 235.583 68.3333 233.983 69.24C232.409 70.12 230.583 70.56 228.503 70.56ZM228.503 63.48C229.409 63.48 230.169 63.1733 230.783 62.56C231.396 61.9467 231.703 61.1467 231.703 60.16C231.703 59.1733 231.396 58.3867 230.783 57.8C230.169 57.1867 229.409 56.88 228.503 56.88C227.596 56.88 226.836 57.1867 226.223 57.8C225.636 58.3867 225.343 59.1733 225.343 60.16C225.343 61.1467 225.636 61.9467 226.223 62.56C226.836 63.1733 227.596 63.48 228.503 63.48ZM250.898 70.32C248.391 70.32 246.431 69.76 245.018 68.64C243.604 67.4933 242.898 65.5867 242.898 62.92V50.64L242.778 50.4L244.298 45.48H250.138V60.6C250.138 61.64 250.364 62.36 250.818 62.76C251.271 63.16 251.884 63.36 252.658 63.36C253.031 63.36 253.391 63.32 253.738 63.24C254.111 63.16 254.418 63.08 254.658 63V69.8C254.098 69.9867 253.511 70.12 252.898 70.2C252.311 70.28 251.644 70.32 250.898 70.32ZM239.818 57.08V50.4H254.658V57.08H239.818ZM262.089 70.56C261.236 70.56 260.449 70.3467 259.729 69.92C259.009 69.4933 258.436 68.92 258.009 68.2C257.582 67.48 257.369 66.6933 257.369 65.84C257.369 64.96 257.582 64.1733 258.009 63.48C258.436 62.76 259.009 62.1867 259.729 61.76C260.449 61.3333 261.236 61.12 262.089 61.12C262.996 61.12 263.796 61.3333 264.489 61.76C265.209 62.1867 265.782 62.76 266.209 63.48C266.636 64.1733 266.849 64.96 266.849 65.84C266.849 66.6933 266.636 67.48 266.209 68.2C265.782 68.92 265.209 69.4933 264.489 69.92C263.796 70.3467 262.996 70.56 262.089 70.56ZM262.089 58.36C261.236 58.36 260.449 58.1467 259.729 57.72C259.009 57.2933 258.436 56.72 258.009 56C257.582 55.28 257.369 54.4933 257.369 53.64C257.369 52.7867 257.582 52 258.009 51.28C258.436 50.56 259.009 49.9867 259.729 49.56C260.449 49.1333 261.236 48.92 262.089 48.92C262.996 48.92 263.796 49.1333 264.489 49.56C265.209 49.9867 265.782 50.56 266.209 51.28C266.636 52 266.849 52.7867 266.849 53.64C266.849 54.4933 266.636 55.28 266.209 56C265.782 56.72 265.209 57.2933 264.489 57.72C263.796 58.1467 262.996 58.36 262.089 58.36Z"/>
</mask>
<path d="M131.98 55.96H129.02L135.7 42.76H143.34L133.7 61.64L133.94 58.36V70H126.7V58.36L126.94 61.64L117.3 42.76H125.3L131.98 55.96ZM151.042 70.56C148.962 70.56 147.135 70.12 145.562 69.24C143.989 68.3333 142.749 67.1067 141.842 65.56C140.962 63.9867 140.522 62.2 140.522 60.2C140.522 58.2 140.962 56.4267 141.842 54.88C142.749 53.3067 143.989 52.08 145.562 51.2C147.135 50.2933 148.962 49.84 151.042 49.84C153.122 49.84 154.949 50.2933 156.522 51.2C158.122 52.08 159.362 53.3067 160.242 54.88C161.122 56.4267 161.562 58.2 161.562 60.2C161.562 62.2 161.122 63.9867 160.242 65.56C159.362 67.1067 158.122 68.3333 156.522 69.24C154.949 70.12 153.122 70.56 151.042 70.56ZM151.042 63.48C151.949 63.48 152.709 63.1733 153.322 62.56C153.935 61.9467 154.242 61.1467 154.242 60.16C154.242 59.1733 153.935 58.3867 153.322 57.8C152.709 57.1867 151.949 56.88 151.042 56.88C150.135 56.88 149.375 57.1867 148.762 57.8C148.175 58.3867 147.882 59.1733 147.882 60.16C147.882 61.1467 148.175 61.9467 148.762 62.56C149.375 63.1733 150.135 63.48 151.042 63.48ZM170.672 70.56C169.232 70.56 168.046 70.36 167.112 69.96C166.179 69.5333 165.432 68.96 164.872 68.24C164.339 67.52 163.952 66.68 163.712 65.72C163.499 64.7333 163.392 63.68 163.392 62.56V50.4H170.632V61.32C170.632 62.2 170.792 62.7867 171.112 63.08C171.432 63.3467 171.859 63.48 172.392 63.48C172.739 63.48 173.086 63.44 173.432 63.36C173.779 63.2533 174.152 63.08 174.552 62.84C174.952 62.6 175.392 62.2533 175.872 61.8L177.632 65.32H175.232V50.4H182.512V70H177.192L175.712 65.8L178.472 66.16C177.859 66.8533 177.139 67.5467 176.312 68.24C175.486 68.9067 174.592 69.4667 173.632 69.92C172.699 70.3467 171.712 70.56 170.672 70.56ZM205.169 78.08C204.156 78.08 203.076 77.92 201.929 77.6C200.809 77.28 199.756 76.7467 198.769 76C197.783 75.2533 196.996 74.24 196.409 72.96L196.049 72.16L201.089 69.72C201.729 70.6533 202.343 71.3067 202.929 71.68C203.543 72.0533 204.329 72.24 205.289 72.24C206.223 72.24 207.009 71.9333 207.649 71.32C208.289 70.7067 208.609 69.8133 208.609 68.64V62.52H208.969V56.12H208.609L210.489 50.4H215.849V66.92C215.849 69.24 215.449 71.2267 214.649 72.88C213.849 74.56 212.649 75.84 211.049 76.72C209.476 77.6267 207.516 78.08 205.169 78.08ZM204.169 69.08C202.463 69.08 200.929 68.6667 199.569 67.84C198.236 67.0133 197.169 65.88 196.369 64.44C195.596 62.9733 195.209 61.32 195.209 59.48C195.209 57.64 195.583 56 196.329 54.56C197.103 53.0933 198.156 51.9467 199.489 51.12C200.823 50.2667 202.343 49.84 204.049 49.84C205.596 49.84 206.956 50.2533 208.129 51.08C209.303 51.88 210.223 53 210.889 54.44C211.556 55.88 211.889 57.56 211.889 59.48C211.889 61.5333 211.569 63.28 210.929 64.72C210.316 66.1333 209.423 67.2133 208.249 67.96C207.103 68.7067 205.743 69.08 204.169 69.08ZM205.769 62.68C206.649 62.68 207.396 62.3733 208.009 61.76C208.649 61.12 208.969 60.36 208.969 59.48C208.969 58.5467 208.649 57.7733 208.009 57.16C207.396 56.52 206.649 56.2 205.769 56.2C204.863 56.2 204.103 56.52 203.489 57.16C202.876 57.7733 202.569 58.5467 202.569 59.48C202.569 60.36 202.876 61.12 203.489 61.76C204.103 62.3733 204.863 62.68 205.769 62.68ZM228.503 70.56C226.423 70.56 224.596 70.12 223.023 69.24C221.449 68.3333 220.209 67.1067 219.303 65.56C218.423 63.9867 217.983 62.2 217.983 60.2C217.983 58.2 218.423 56.4267 219.303 54.88C220.209 53.3067 221.449 52.08 223.023 51.2C224.596 50.2933 226.423 49.84 228.503 49.84C230.583 49.84 232.409 50.2933 233.983 51.2C235.583 52.08 236.823 53.3067 237.703 54.88C238.583 56.4267 239.023 58.2 239.023 60.2C239.023 62.2 238.583 63.9867 237.703 65.56C236.823 67.1067 235.583 68.3333 233.983 69.24C232.409 70.12 230.583 70.56 228.503 70.56ZM228.503 63.48C229.409 63.48 230.169 63.1733 230.783 62.56C231.396 61.9467 231.703 61.1467 231.703 60.16C231.703 59.1733 231.396 58.3867 230.783 57.8C230.169 57.1867 229.409 56.88 228.503 56.88C227.596 56.88 226.836 57.1867 226.223 57.8C225.636 58.3867 225.343 59.1733 225.343 60.16C225.343 61.1467 225.636 61.9467 226.223 62.56C226.836 63.1733 227.596 63.48 228.503 63.48ZM250.898 70.32C248.391 70.32 246.431 69.76 245.018 68.64C243.604 67.4933 242.898 65.5867 242.898 62.92V50.64L242.778 50.4L244.298 45.48H250.138V60.6C250.138 61.64 250.364 62.36 250.818 62.76C251.271 63.16 251.884 63.36 252.658 63.36C253.031 63.36 253.391 63.32 253.738 63.24C254.111 63.16 254.418 63.08 254.658 63V69.8C254.098 69.9867 253.511 70.12 252.898 70.2C252.311 70.28 251.644 70.32 250.898 70.32ZM239.818 57.08V50.4H254.658V57.08H239.818ZM262.089 70.56C261.236 70.56 260.449 70.3467 259.729 69.92C259.009 69.4933 258.436 68.92 258.009 68.2C257.582 67.48 257.369 66.6933 257.369 65.84C257.369 64.96 257.582 64.1733 258.009 63.48C258.436 62.76 259.009 62.1867 259.729 61.76C260.449 61.3333 261.236 61.12 262.089 61.12C262.996 61.12 263.796 61.3333 264.489 61.76C265.209 62.1867 265.782 62.76 266.209 63.48C266.636 64.1733 266.849 64.96 266.849 65.84C266.849 66.6933 266.636 67.48 266.209 68.2C265.782 68.92 265.209 69.4933 264.489 69.92C263.796 70.3467 262.996 70.56 262.089 70.56ZM262.089 58.36C261.236 58.36 260.449 58.1467 259.729 57.72C259.009 57.2933 258.436 56.72 258.009 56C257.582 55.28 257.369 54.4933 257.369 53.64C257.369 52.7867 257.582 52 258.009 51.28C258.436 50.56 259.009 49.9867 259.729 49.56C260.449 49.1333 261.236 48.92 262.089 48.92C262.996 48.92 263.796 49.1333 264.489 49.56C265.209 49.9867 265.782 50.56 266.209 51.28C266.636 52 266.849 52.7867 266.849 53.64C266.849 54.4933 266.636 55.28 266.209 56C265.782 56.72 265.209 57.2933 264.489 57.72C263.796 58.1467 262.996 58.36 262.089 58.36Z" fill="white"/>
<path d="M131.98 55.96V56.96H133.607L132.872 55.5085L131.98 55.96ZM129.02 55.96L128.128 55.5085L127.393 56.96H129.02V55.96ZM135.7 42.76V41.76H135.085L134.808 42.3085L135.7 42.76ZM143.34 42.76L144.231 43.2147L144.973 41.76H143.34V42.76ZM133.7 61.64L132.703 61.567L134.591 62.0947L133.7 61.64ZM133.94 58.36H134.94L132.943 58.287L133.94 58.36ZM133.94 70V71H134.94V70H133.94ZM126.7 70H125.7V71H126.7V70ZM126.7 58.36L127.697 58.287L125.7 58.36H126.7ZM126.94 61.64L126.049 62.0947L127.937 61.567L126.94 61.64ZM117.3 42.76V41.76H115.667L116.409 43.2147L117.3 42.76ZM125.3 42.76L126.192 42.3085L125.915 41.76H125.3V42.76ZM131.98 54.96H129.02V56.96H131.98V54.96ZM129.912 56.4115L136.592 43.2115L134.808 42.3085L128.128 55.5085L129.912 56.4115ZM135.7 43.76H143.34V41.76H135.7V43.76ZM142.449 42.3053L132.809 61.1853L134.591 62.0947L144.231 43.2147L142.449 42.3053ZM134.697 61.713L134.937 58.433L132.943 58.287L132.703 61.567L134.697 61.713ZM132.94 58.36V70H134.94V58.36H132.94ZM133.94 69H126.7V71H133.94V69ZM127.7 70V58.36H125.7V70H127.7ZM125.703 58.433L125.943 61.713L127.937 61.567L127.697 58.287L125.703 58.433ZM127.831 61.1853L118.191 42.3053L116.409 43.2147L126.049 62.0947L127.831 61.1853ZM117.3 43.76H125.3V41.76H117.3V43.76ZM124.408 43.2115L131.088 56.4115L132.872 55.5085L126.192 42.3085L124.408 43.2115ZM145.562 69.24L145.063 70.1065L145.074 70.1128L145.562 69.24ZM141.842 65.56L140.969 66.0482L140.974 66.057L140.979 66.0657L141.842 65.56ZM141.842 54.88L140.975 54.3807L140.973 54.3855L141.842 54.88ZM145.562 51.2L146.05 52.0728L146.061 52.0664L145.562 51.2ZM156.522 51.2L156.023 52.0664L156.031 52.0714L156.04 52.0762L156.522 51.2ZM160.242 54.88L159.369 55.3682L159.373 55.3745L160.242 54.88ZM160.242 65.56L161.111 66.0545L161.115 66.0482L160.242 65.56ZM156.522 69.24L157.01 70.1128L157.015 70.11L156.522 69.24ZM153.322 57.8L152.615 58.5071L152.623 58.515L152.631 58.5226L153.322 57.8ZM148.762 57.8L149.469 58.5071L148.762 57.8ZM148.762 62.56L148.039 63.2512L148.047 63.2593L148.055 63.2671L148.762 62.56ZM151.042 69.56C149.106 69.56 147.453 69.1517 146.05 68.3672L145.074 70.1128C146.818 71.0883 148.818 71.56 151.042 71.56V69.56ZM146.061 68.3736C144.636 67.5524 143.522 66.4492 142.705 65.0543L140.979 66.0657C141.975 67.7641 143.341 69.1143 145.063 70.1064L146.061 68.3736ZM142.715 65.0718C141.927 63.6635 141.522 62.0482 141.522 60.2H139.522C139.522 62.3518 139.997 64.3098 140.969 66.0482L142.715 65.0718ZM141.522 60.2C141.522 58.3515 141.927 56.7525 142.711 55.3745L140.973 54.3855C139.997 56.1008 139.522 58.0485 139.522 60.2H141.522ZM142.708 55.3793C143.526 53.9611 144.635 52.864 146.05 52.0728L145.074 50.3272C143.342 51.296 141.972 52.6522 140.975 54.3807L142.708 55.3793ZM146.061 52.0664C147.462 51.2593 149.111 50.84 151.042 50.84V48.84C148.812 48.84 146.809 49.3273 145.063 50.3336L146.061 52.0664ZM151.042 50.84C152.972 50.84 154.622 51.2593 156.023 52.0664L157.021 50.3336C155.275 49.3273 153.271 48.84 151.042 48.84V50.84ZM156.04 52.0762C157.478 52.8672 158.582 53.9604 159.369 55.3682L161.115 54.3918C160.142 52.6529 158.766 51.2928 157.004 50.3238L156.04 52.0762ZM159.373 55.3745C160.157 56.7525 160.562 58.3515 160.562 60.2H162.562C162.562 58.0485 162.087 56.1008 161.111 54.3855L159.373 55.3745ZM160.562 60.2C160.562 62.0482 160.157 63.6635 159.369 65.0718L161.115 66.0482C162.087 64.3098 162.562 62.3518 162.562 60.2H160.562ZM159.373 65.0655C158.585 66.4499 157.477 67.5491 156.029 68.37L157.015 70.11C158.766 69.1175 160.139 67.7634 161.111 66.0545L159.373 65.0655ZM156.034 68.3672C154.631 69.1517 152.978 69.56 151.042 69.56V71.56C153.266 71.56 155.266 71.0883 157.01 70.1128L156.034 68.3672ZM151.042 64.48C152.2 64.48 153.219 64.0772 154.029 63.2671L152.615 61.8529C152.198 62.2694 151.697 62.48 151.042 62.48V64.48ZM154.029 63.2671C154.856 62.4399 155.242 61.3722 155.242 60.16H153.242C153.242 60.9211 153.014 61.4534 152.615 61.8529L154.029 63.2671ZM155.242 60.16C155.242 58.9487 154.856 57.8836 154.013 57.0774L152.631 58.5226C153.014 58.8897 153.242 59.398 153.242 60.16H155.242ZM154.029 57.0929C153.219 56.2828 152.2 55.88 151.042 55.88V57.88C151.697 57.88 152.198 58.0906 152.615 58.5071L154.029 57.0929ZM151.042 55.88C149.883 55.88 148.865 56.2828 148.055 57.0929L149.469 58.5071C149.886 58.0906 150.387 57.88 151.042 57.88V55.88ZM148.055 57.0929C147.246 57.902 146.882 58.962 146.882 60.16H148.882C148.882 59.3847 149.105 58.8713 149.469 58.5071L148.055 57.0929ZM146.882 60.16C146.882 61.3593 147.246 62.4217 148.039 63.2512L149.485 61.8688C149.105 61.4717 148.882 60.9341 148.882 60.16H146.882ZM148.055 63.2671C148.865 64.0772 149.883 64.48 151.042 64.48V62.48C150.387 62.48 149.886 62.2694 149.469 61.8529L148.055 63.2671ZM167.112 69.96L166.696 70.8695L166.707 70.8744L166.718 70.8791L167.112 69.96ZM164.872 68.24L164.069 68.8352L164.076 68.8447L164.083 68.8539L164.872 68.24ZM163.712 65.72L162.735 65.9313L162.738 65.947L162.742 65.9625L163.712 65.72ZM163.392 50.4V49.4H162.392V50.4H163.392ZM170.632 50.4H171.632V49.4H170.632V50.4ZM171.112 63.08L170.436 63.8172L170.454 63.8331L170.472 63.8482L171.112 63.08ZM173.432 63.36L173.657 64.3344L173.692 64.3263L173.726 64.3158L173.432 63.36ZM174.552 62.84L174.038 61.9825V61.9825L174.552 62.84ZM175.872 61.8L176.767 61.3528L176.164 60.1485L175.186 61.073L175.872 61.8ZM177.632 65.32V66.32H179.25L178.527 64.8728L177.632 65.32ZM175.232 65.32H174.232V66.32H175.232V65.32ZM175.232 50.4V49.4H174.232V50.4H175.232ZM182.512 50.4H183.512V49.4H182.512V50.4ZM182.512 70V71H183.512V70H182.512ZM177.192 70L176.249 70.3324L176.484 71H177.192V70ZM175.712 65.8L175.842 64.8084L174.228 64.598L174.769 66.1324L175.712 65.8ZM178.472 66.16L179.221 66.8226L180.469 65.412L178.602 65.1684L178.472 66.16ZM176.312 68.24L176.94 69.0184L176.947 69.0124L176.955 69.0062L176.312 68.24ZM173.632 69.92L174.048 70.8295L174.059 70.8242L173.632 69.92ZM170.672 69.56C169.315 69.56 168.274 69.3701 167.506 69.0409L166.718 70.8791C167.817 71.3499 169.149 71.56 170.672 71.56V69.56ZM167.528 69.0505C166.723 68.6824 166.111 68.2037 165.662 67.6261L164.083 68.8539C164.754 69.7163 165.635 70.3843 166.696 70.8695L167.528 69.0505ZM165.676 67.6448C165.228 67.0408 164.894 66.3234 164.682 65.4775L162.742 65.9625C163.011 67.0366 163.449 67.9992 164.069 68.8352L165.676 67.6448ZM164.69 65.5087C164.493 64.5985 164.392 63.6166 164.392 62.56H162.392C162.392 63.7434 162.505 64.8681 162.735 65.9313L164.69 65.5087ZM164.392 62.56V50.4H162.392V62.56H164.392ZM163.392 51.4H170.632V49.4H163.392V51.4ZM169.632 50.4V61.32H171.632V50.4H169.632ZM169.632 61.32C169.632 62.229 169.778 63.2136 170.436 63.8172L171.788 62.3428C171.812 62.3652 171.766 62.338 171.717 62.1569C171.668 61.9781 171.632 61.707 171.632 61.32H169.632ZM170.472 63.8482C171.017 64.3025 171.692 64.48 172.392 64.48V62.48C172.026 62.48 171.847 62.3908 171.752 62.3118L170.472 63.8482ZM172.392 64.48C172.817 64.48 173.239 64.431 173.657 64.3344L173.207 62.3856C172.932 62.449 172.661 62.48 172.392 62.48V64.48ZM173.726 64.3158C174.168 64.1797 174.616 63.9679 175.067 63.6975L174.038 61.9825C173.688 62.1921 173.389 62.3269 173.138 62.4042L173.726 64.3158ZM175.067 63.6975C175.548 63.4086 176.046 63.0112 176.559 62.527L175.186 61.073C174.738 61.4954 174.356 61.7914 174.038 61.9825L175.067 63.6975ZM174.978 62.2472L176.738 65.7672L178.527 64.8728L176.767 61.3528L174.978 62.2472ZM177.632 64.32H175.232V66.32H177.632V64.32ZM176.232 65.32V50.4H174.232V65.32H176.232ZM175.232 51.4H182.512V49.4H175.232V51.4ZM181.512 50.4V70H183.512V50.4H181.512ZM182.512 69H177.192V71H182.512V69ZM178.135 69.6676L176.655 65.4677L174.769 66.1324L176.249 70.3324L178.135 69.6676ZM175.583 66.7916L178.343 67.1516L178.602 65.1684L175.842 64.8084L175.583 66.7916ZM177.723 65.4974C177.148 66.1481 176.464 66.8073 175.67 67.4738L176.955 69.0062C177.813 68.2861 178.57 67.5585 179.221 66.8226L177.723 65.4974ZM175.684 67.4616C174.919 68.0785 174.093 68.5963 173.205 69.0158L174.059 70.8242C175.091 70.3371 176.052 69.7348 176.94 69.0184L175.684 67.4616ZM173.216 69.0105C172.415 69.3767 171.571 69.56 170.672 69.56V71.56C171.854 71.56 172.982 71.3166 174.048 70.8295L173.216 69.0105ZM201.929 77.6L201.655 78.5615L201.661 78.5632L201.929 77.6ZM196.409 72.96L195.497 73.3704L195.5 73.3767L196.409 72.96ZM196.049 72.16L195.614 71.2599L194.738 71.6836L195.137 72.5704L196.049 72.16ZM201.089 69.72L201.914 69.1545L201.428 68.4452L200.654 68.8199L201.089 69.72ZM202.929 71.68L202.393 72.5237L202.401 72.529L202.409 72.5342L202.929 71.68ZM207.649 71.32L206.957 70.598H206.957L207.649 71.32ZM208.609 62.52V61.52H207.609V62.52H208.609ZM208.969 62.52V63.52H209.969V62.52H208.969ZM208.969 56.12H209.969V55.12H208.969V56.12ZM208.609 56.12L207.659 55.8078L207.228 57.12H208.609V56.12ZM210.489 50.4V49.4H209.765L209.539 50.0878L210.489 50.4ZM215.849 50.4H216.849V49.4H215.849V50.4ZM214.649 72.88L213.749 72.4444L213.747 72.4501L214.649 72.88ZM211.049 76.72L210.567 75.8438L210.559 75.8486L210.55 75.8536L211.049 76.72ZM199.569 67.84L199.042 68.6899L199.05 68.6945L199.569 67.84ZM196.369 64.44L195.485 64.9064L195.49 64.9161L195.495 64.9256L196.369 64.44ZM196.329 54.56L195.445 54.0936L195.442 54.0997L196.329 54.56ZM199.489 51.12L200.016 51.9699L200.022 51.9661L200.028 51.9623L199.489 51.12ZM208.129 51.08L207.553 51.8975L207.56 51.9019L207.566 51.9062L208.129 51.08ZM210.889 54.44L209.982 54.8601L210.889 54.44ZM210.929 64.72L210.016 64.3138L210.012 64.3219L210.929 64.72ZM208.249 67.96L207.712 67.1163L207.704 67.122L208.249 67.96ZM208.009 61.76L207.302 61.0529L208.009 61.76ZM208.009 57.16L207.287 57.8519L207.302 57.8673L207.317 57.882L208.009 57.16ZM203.489 57.16L204.196 57.8671L204.204 57.8596L204.211 57.8519L203.489 57.16ZM203.489 61.76L202.767 62.4519L202.775 62.4596L202.782 62.4671L203.489 61.76ZM205.169 77.08C204.261 77.08 203.272 76.9365 202.198 76.6368L201.661 78.5632C202.88 78.9035 204.051 79.08 205.169 79.08V77.08ZM202.204 76.6385C201.21 76.3545 200.267 75.8794 199.373 75.2026L198.166 76.7974C199.245 77.6139 200.409 78.2055 201.655 78.5615L202.204 76.6385ZM199.373 75.2026C198.535 74.5687 197.846 73.6941 197.318 72.5433L195.5 73.3767C196.146 74.7859 197.03 75.938 198.166 76.7974L199.373 75.2026ZM197.321 72.5496L196.961 71.7496L195.137 72.5704L195.497 73.3704L197.321 72.5496ZM196.485 73.0601L201.525 70.6201L200.654 68.8199L195.614 71.2599L196.485 73.0601ZM200.265 70.2855C200.939 71.2688 201.643 72.0466 202.393 72.5237L203.466 70.8363C203.043 70.5667 202.52 70.0378 201.914 69.1545L200.265 70.2855ZM202.409 72.5342C203.224 73.0299 204.206 73.24 205.289 73.24V71.24C204.453 71.24 203.862 71.0768 203.449 70.8258L202.409 72.5342ZM205.289 73.24C206.465 73.24 207.505 72.8439 208.341 72.042L206.957 70.598C206.514 71.0228 205.98 71.24 205.289 71.24V73.24ZM208.341 72.042C209.236 71.1847 209.609 69.9939 209.609 68.64H207.609C207.609 69.6327 207.343 70.2287 206.957 70.598L208.341 72.042ZM209.609 68.64V62.52H207.609V68.64H209.609ZM208.609 63.52H208.969V61.52H208.609V63.52ZM209.969 62.52V56.12H207.969V62.52H209.969ZM208.969 55.12H208.609V57.12H208.969V55.12ZM209.559 56.4322L211.439 50.7122L209.539 50.0878L207.659 55.8078L209.559 56.4322ZM210.489 51.4H215.849V49.4H210.489V51.4ZM214.849 50.4V66.92H216.849V50.4H214.849ZM214.849 66.92C214.849 69.1277 214.469 70.9578 213.749 72.4444L215.55 73.3156C216.43 71.4955 216.849 69.3523 216.849 66.92H214.849ZM213.747 72.4501C213.035 73.9447 211.98 75.0668 210.567 75.8438L211.531 77.5962C213.319 76.6132 214.664 75.1753 215.552 73.3099L213.747 72.4501ZM210.55 75.8536C209.167 76.6507 207.391 77.08 205.169 77.08V79.08C207.641 79.08 209.785 78.6026 211.549 77.5864L210.55 75.8536ZM204.169 68.08C202.632 68.08 201.281 67.7101 200.089 66.9855L199.05 68.6945C200.578 69.6233 202.293 70.08 204.169 70.08V68.08ZM200.096 66.9901C198.915 66.2578 197.965 65.2531 197.244 63.9544L195.495 64.9256C196.374 66.5069 197.557 67.7688 199.042 68.6899L200.096 66.9901ZM197.254 63.9736C196.564 62.6659 196.209 61.1756 196.209 59.48H194.209C194.209 61.4644 194.628 63.2807 195.485 64.9064L197.254 63.9736ZM196.209 59.48C196.209 57.7785 196.554 56.3 197.217 55.0203L195.442 54.0997C194.612 55.7 194.209 57.5015 194.209 59.48H196.209ZM197.214 55.0264C197.909 53.7078 198.843 52.6974 200.016 51.9699L198.962 50.2701C197.469 51.1959 196.296 52.4789 195.445 54.0936L197.214 55.0264ZM200.028 51.9623C201.188 51.22 202.518 50.84 204.049 50.84V48.84C202.167 48.84 200.457 49.3133 198.95 50.2777L200.028 51.9623ZM204.049 50.84C205.407 50.84 206.562 51.1989 207.553 51.8975L208.705 50.2625C207.35 49.3077 205.785 48.84 204.049 48.84V50.84ZM207.566 51.9062C208.573 52.5928 209.382 53.5643 209.982 54.8601L211.797 54.0199C211.063 52.4356 210.032 51.1672 208.693 50.2538L207.566 51.9062ZM209.982 54.8601C210.576 56.1438 210.889 57.6752 210.889 59.48H212.889C212.889 57.4448 212.536 55.6162 211.797 54.0199L209.982 54.8601ZM210.889 59.48C210.889 61.434 210.584 63.0342 210.016 64.3139L211.843 65.1261C212.554 63.5258 212.889 61.6327 212.889 59.48H210.889ZM210.012 64.3219C209.469 65.5726 208.699 66.4883 207.713 67.1163L208.786 68.8037C210.146 67.9384 211.163 66.694 211.847 65.1181L210.012 64.3219ZM207.704 67.122C206.743 67.7478 205.579 68.08 204.169 68.08V70.08C205.907 70.08 207.463 69.6655 208.795 68.798L207.704 67.122ZM205.769 63.68C206.91 63.68 207.913 63.271 208.716 62.4671L207.302 61.0529C206.88 61.4756 206.388 61.68 205.769 61.68V63.68ZM208.716 62.4671C209.538 61.6456 209.969 60.6336 209.969 59.48H207.969C207.969 60.0864 207.761 60.5944 207.302 61.0529L208.716 62.4671ZM209.969 59.48C209.969 58.2902 209.549 57.2508 208.701 56.438L207.317 57.882C207.749 58.2958 207.969 58.8031 207.969 59.48H209.969ZM208.731 56.4681C207.931 55.6329 206.924 55.2 205.769 55.2V57.2C206.375 57.2 206.861 57.4071 207.287 57.8519L208.731 56.4681ZM205.769 55.2C204.597 55.2 203.574 55.6263 202.767 56.4681L204.211 57.8519C204.631 57.4137 205.128 57.2 205.769 57.2V55.2ZM202.782 56.4529C201.966 57.269 201.569 58.3037 201.569 59.48H203.569C203.569 58.7896 203.786 58.2777 204.196 57.8671L202.782 56.4529ZM201.569 59.48C201.569 60.62 201.977 61.6273 202.767 62.4519L204.211 61.0681C203.775 60.6127 203.569 60.1 203.569 59.48H201.569ZM202.782 62.4671C203.592 63.2772 204.611 63.68 205.769 63.68V61.68C205.115 61.68 204.613 61.4694 204.196 61.0529L202.782 62.4671ZM223.023 69.24L222.523 70.1065L222.535 70.1128L223.023 69.24ZM219.303 65.56L218.43 66.0482L218.435 66.057L218.44 66.0657L219.303 65.56ZM219.303 54.88L218.436 54.3807L218.434 54.3855L219.303 54.88ZM223.023 51.2L223.511 52.0728L223.522 52.0664L223.023 51.2ZM233.983 51.2L233.484 52.0664L233.492 52.0714L233.501 52.0762L233.983 51.2ZM237.703 54.88L236.83 55.3682L236.834 55.3745L237.703 54.88ZM237.703 65.56L238.572 66.0545L238.576 66.0482L237.703 65.56ZM233.983 69.24L234.471 70.1128L234.476 70.11L233.983 69.24ZM230.783 57.8L230.076 58.5071L230.084 58.515L230.092 58.5226L230.783 57.8ZM226.223 57.8L226.93 58.5071L226.223 57.8ZM226.223 62.56L225.5 63.2512L225.508 63.2593L225.516 63.2671L226.223 62.56ZM228.503 69.56C226.567 69.56 224.914 69.1517 223.511 68.3672L222.535 70.1128C224.279 71.0883 226.278 71.56 228.503 71.56V69.56ZM223.522 68.3736C222.097 67.5524 220.983 66.4492 220.166 65.0543L218.44 66.0657C219.436 67.7641 220.802 69.1143 222.524 70.1064L223.522 68.3736ZM220.176 65.0718C219.388 63.6635 218.983 62.0482 218.983 60.2H216.983C216.983 62.3518 217.458 64.3098 218.43 66.0482L220.176 65.0718ZM218.983 60.2C218.983 58.3515 219.388 56.7525 220.172 55.3745L218.434 54.3855C217.458 56.1008 216.983 58.0485 216.983 60.2H218.983ZM220.169 55.3793C220.987 53.9611 222.096 52.864 223.511 52.0728L222.535 50.3272C220.803 51.296 219.432 52.6522 218.436 54.3807L220.169 55.3793ZM223.522 52.0664C224.923 51.2593 226.572 50.84 228.503 50.84V48.84C226.273 48.84 224.27 49.3273 222.524 50.3336L223.522 52.0664ZM228.503 50.84C230.433 50.84 232.083 51.2593 233.484 52.0664L234.482 50.3336C232.736 49.3273 230.732 48.84 228.503 48.84V50.84ZM233.501 52.0762C234.939 52.8672 236.043 53.9604 236.83 55.3682L238.576 54.3918C237.603 52.6529 236.227 51.2928 234.465 50.3238L233.501 52.0762ZM236.834 55.3745C237.618 56.7525 238.023 58.3515 238.023 60.2H240.023C240.023 58.0485 239.548 56.1008 238.572 54.3855L236.834 55.3745ZM238.023 60.2C238.023 62.0482 237.618 63.6635 236.83 65.0718L238.576 66.0482C239.548 64.3098 240.023 62.3518 240.023 60.2H238.023ZM236.834 65.0655C236.046 66.4499 234.938 67.5491 233.49 68.37L234.476 70.11C236.227 69.1175 237.6 67.7634 238.572 66.0545L236.834 65.0655ZM233.495 68.3672C232.092 69.1517 230.438 69.56 228.503 69.56V71.56C230.727 71.56 232.727 71.0883 234.471 70.1128L233.495 68.3672ZM228.503 64.48C229.661 64.48 230.68 64.0772 231.49 63.2671L230.076 61.8529C229.659 62.2694 229.158 62.48 228.503 62.48V64.48ZM231.49 63.2671C232.317 62.4399 232.703 61.3722 232.703 60.16H230.703C230.703 60.9211 230.475 61.4534 230.076 61.8529L231.49 63.2671ZM232.703 60.16C232.703 58.9487 232.317 57.8836 231.474 57.0774L230.092 58.5226C230.475 58.8897 230.703 59.398 230.703 60.16H232.703ZM231.49 57.0929C230.68 56.2828 229.661 55.88 228.503 55.88V57.88C229.158 57.88 229.659 58.0906 230.076 58.5071L231.49 57.0929ZM228.503 55.88C227.344 55.88 226.326 56.2828 225.516 57.0929L226.93 58.5071C227.346 58.0906 227.848 57.88 228.503 57.88V55.88ZM225.516 57.0929C224.707 57.902 224.343 58.962 224.343 60.16H226.343C226.343 59.3847 226.566 58.8713 226.93 58.5071L225.516 57.0929ZM224.343 60.16C224.343 61.3593 224.707 62.4217 225.5 63.2512L226.945 61.8688C226.566 61.4717 226.343 60.9341 226.343 60.16H224.343ZM225.516 63.2671C226.326 64.0772 227.344 64.48 228.503 64.48V62.48C227.848 62.48 227.346 62.2694 226.93 61.8529L225.516 63.2671ZM245.018 68.64L244.388 69.4166L244.397 69.4237L245.018 68.64ZM242.898 50.64H243.898V50.4039L243.792 50.1928L242.898 50.64ZM242.778 50.4L241.822 50.1048L241.704 50.4883L241.883 50.8472L242.778 50.4ZM244.298 45.48V44.48H243.56L243.342 45.1848L244.298 45.48ZM250.138 45.48H251.138V44.48H250.138V45.48ZM250.818 62.76L250.156 63.5098L250.818 62.76ZM253.738 63.24L253.528 62.2622L253.521 62.2638L253.513 62.2656L253.738 63.24ZM254.658 63H255.658V61.6126L254.342 62.0513L254.658 63ZM254.658 69.8L254.974 70.7487L255.658 70.5208V69.8H254.658ZM252.898 70.2L252.768 69.2084L252.763 69.2092L252.898 70.2ZM239.818 57.08H238.818V58.08H239.818V57.08ZM239.818 50.4V49.4H238.818V50.4H239.818ZM254.658 50.4H255.658V49.4H254.658V50.4ZM254.658 57.08V58.08H255.658V57.08H254.658ZM250.898 69.32C248.53 69.32 246.818 68.7905 245.639 67.8563L244.397 69.4237C246.044 70.7295 248.252 71.32 250.898 71.32V69.32ZM245.648 67.8634C244.562 66.9821 243.898 65.43 243.898 62.92H241.898C241.898 65.7433 242.647 68.0045 244.388 69.4166L245.648 67.8634ZM243.898 62.92V50.64H241.898V62.92H243.898ZM243.792 50.1928L243.672 49.9528L241.883 50.8472L242.003 51.0872L243.792 50.1928ZM243.733 50.6952L245.253 45.7752L243.342 45.1848L241.822 50.1048L243.733 50.6952ZM244.298 46.48H250.138V44.48H244.298V46.48ZM249.138 45.48V60.6H251.138V45.48H249.138ZM249.138 60.6C249.138 61.7305 249.375 62.8203 250.156 63.5098L251.479 62.0102C251.354 61.8997 251.138 61.5495 251.138 60.6H249.138ZM250.156 63.5098C250.839 64.112 251.711 64.36 252.658 64.36V62.36C252.058 62.36 251.704 62.208 251.479 62.0102L250.156 63.5098ZM252.658 64.36C253.103 64.36 253.539 64.3122 253.963 64.2144L253.513 62.2656C253.244 62.3278 252.959 62.36 252.658 62.36V64.36ZM253.947 64.2178C254.341 64.1335 254.686 64.0446 254.974 63.9487L254.342 62.0513C254.149 62.1154 253.882 62.1865 253.528 62.2622L253.947 64.2178ZM253.658 63V69.8H255.658V63H253.658ZM254.342 68.8513C253.845 69.0168 253.321 69.1363 252.768 69.2084L253.027 71.1916C253.701 71.1037 254.35 70.9566 254.974 70.7487L254.342 68.8513ZM252.763 69.2092C252.231 69.2817 251.61 69.32 250.898 69.32V71.32C251.679 71.32 252.392 71.2783 253.033 71.1908L252.763 69.2092ZM240.818 57.08V50.4H238.818V57.08H240.818ZM239.818 51.4H254.658V49.4H239.818V51.4ZM253.658 50.4V57.08H255.658V50.4H253.658ZM254.658 56.08H239.818V58.08H254.658V56.08ZM259.729 69.92L259.219 70.7803L259.729 69.92ZM258.009 68.2L257.149 68.7098L258.009 68.2ZM258.009 63.48L258.861 64.0041L258.865 63.997L258.869 63.9898L258.009 63.48ZM259.729 61.76L259.219 60.8997L259.729 61.76ZM264.489 61.76L263.965 62.6117L263.972 62.616L263.979 62.6203L264.489 61.76ZM266.209 63.48L265.349 63.9898L265.353 63.997L265.357 64.0041L266.209 63.48ZM266.209 68.2L267.069 68.7098L266.209 68.2ZM264.489 69.92L263.979 69.0597L263.972 69.064L263.965 69.0683L264.489 69.92ZM259.729 57.72L259.219 58.5803L259.729 57.72ZM258.009 56L258.869 55.4902L258.009 56ZM258.009 51.28L257.149 50.7702L258.009 51.28ZM259.729 49.56L259.219 48.6997L259.729 49.56ZM264.489 49.56L263.965 50.4117L263.972 50.416L263.979 50.4203L264.489 49.56ZM266.209 51.28L267.069 50.7702L266.209 51.28ZM266.209 56L265.349 55.4902L266.209 56ZM264.489 57.72L263.979 56.8597L263.972 56.864L263.965 56.8683L264.489 57.72ZM262.089 69.56C261.411 69.56 260.801 69.3931 260.239 69.0597L259.219 70.7803C260.097 71.3003 261.06 71.56 262.089 71.56V69.56ZM260.239 69.0597C259.663 68.7186 259.21 68.2658 258.869 67.6902L257.149 68.7098C257.661 69.5742 258.355 70.2681 259.219 70.7803L260.239 69.0597ZM258.869 67.6902C258.536 67.1277 258.369 66.5176 258.369 65.84H256.369C256.369 66.869 256.629 67.8323 257.149 68.7098L258.869 67.6902ZM258.369 65.84C258.369 65.1295 258.539 64.5271 258.861 64.0041L257.157 62.9559C256.626 63.8196 256.369 64.7905 256.369 65.84H258.369ZM258.869 63.9898C259.21 63.4142 259.663 62.9614 260.239 62.6203L259.219 60.8997C258.355 61.4119 257.661 62.1058 257.149 62.9702L258.869 63.9898ZM260.239 62.6203C260.801 62.2869 261.411 62.12 262.089 62.12V60.12C261.06 60.12 260.097 60.3797 259.219 60.8997L260.239 62.6203ZM262.089 62.12C262.832 62.12 263.447 62.2927 263.965 62.6117L265.013 60.9083C264.145 60.3739 263.159 60.12 262.089 60.12V62.12ZM263.979 62.6203C264.555 62.9614 265.008 63.4142 265.349 63.9898L267.069 62.9702C266.557 62.1058 265.863 61.4119 264.999 60.8997L263.979 62.6203ZM265.357 64.0041C265.679 64.5271 265.849 65.1295 265.849 65.84H267.849C267.849 64.7905 267.592 63.8196 267.061 62.9559L265.357 64.0041ZM265.849 65.84C265.849 66.5176 265.682 67.1277 265.349 67.6902L267.069 68.7098C267.589 67.8323 267.849 66.869 267.849 65.84H265.849ZM265.349 67.6902C265.008 68.2658 264.555 68.7186 263.979 69.0597L264.999 70.7803C265.863 70.2681 266.557 69.5742 267.069 68.7098L265.349 67.6902ZM263.965 69.0683C263.447 69.3873 262.832 69.56 262.089 69.56V71.56C263.159 71.56 264.145 71.3061 265.013 70.7717L263.965 69.0683ZM262.089 57.36C261.411 57.36 260.801 57.1931 260.239 56.8597L259.219 58.5803C260.097 59.1003 261.06 59.36 262.089 59.36V57.36ZM260.239 56.8597C259.663 56.5186 259.21 56.0658 258.869 55.4902L257.149 56.5098C257.661 57.3742 258.355 58.0681 259.219 58.5803L260.239 56.8597ZM258.869 55.4902C258.536 54.9277 258.369 54.3176 258.369 53.64H256.369C256.369 54.669 256.629 55.6323 257.149 56.5098L258.869 55.4902ZM258.369 53.64C258.369 52.9624 258.536 52.3523 258.869 51.7898L257.149 50.7702C256.629 51.6477 256.369 52.611 256.369 53.64H258.369ZM258.869 51.7898C259.21 51.2142 259.663 50.7614 260.239 50.4203L259.219 48.6997C258.355 49.2119 257.661 49.9058 257.149 50.7702L258.869 51.7898ZM260.239 50.4203C260.801 50.0869 261.411 49.92 262.089 49.92V47.92C261.06 47.92 260.097 48.1797 259.219 48.6997L260.239 50.4203ZM262.089 49.92C262.832 49.92 263.447 50.0927 263.965 50.4117L265.013 48.7083C264.145 48.1739 263.159 47.92 262.089 47.92V49.92ZM263.979 50.4203C264.555 50.7614 265.008 51.2142 265.349 51.7898L267.069 50.7702C266.557 49.9058 265.863 49.2119 264.999 48.6997L263.979 50.4203ZM265.349 51.7898C265.682 52.3523 265.849 52.9624 265.849 53.64H267.849C267.849 52.611 267.589 51.6477 267.069 50.7702L265.349 51.7898ZM265.849 53.64C265.849 54.3176 265.682 54.9277 265.349 55.4902L267.069 56.5098C267.589 55.6323 267.849 54.669 267.849 53.64H265.849ZM265.349 55.4902C265.008 56.0658 264.555 56.5186 263.979 56.8597L264.999 58.5803C265.863 58.0681 266.557 57.3742 267.069 56.5098L265.349 55.4902ZM263.965 56.8683C263.447 57.1873 262.832 57.36 262.089 57.36V59.36C263.159 59.36 264.145 59.1061 265.013 58.5717L263.965 56.8683Z" fill="black" mask="url(#path-2-outside-1_33_64846)"/>
<mask id="path-4-outside-2_33_64846" maskUnits="userSpaceOnUse" x="284.5" y="41" width="24" height="31" fill="black">
<rect fill="white" x="284.5" y="41" width="24" height="31"/>
<path d="M296.1 70.56C294.02 70.56 292.18 70 290.58 68.88C289.007 67.76 287.78 66.1467 286.9 64.04C286.02 61.9333 285.58 59.4 285.58 56.44C285.58 53.48 286.02 50.9467 286.9 48.84C287.78 46.7067 289.007 45.0667 290.58 43.92C292.18 42.7733 294.02 42.2 296.1 42.2C298.207 42.2 300.033 42.7733 301.58 43.92C303.153 45.0667 304.38 46.7067 305.26 48.84C306.14 50.9467 306.58 53.48 306.58 56.44C306.58 59.4 306.14 61.9333 305.26 64.04C304.38 66.1467 303.153 67.76 301.58 68.88C300.033 70 298.207 70.56 296.1 70.56ZM296.1 63.44C296.927 63.44 297.553 63.12 297.98 62.48C298.433 61.8133 298.74 60.9467 298.9 59.88C299.087 58.8133 299.18 57.6667 299.18 56.44C299.18 55.32 299.1 54.2267 298.94 53.16C298.78 52.0667 298.473 51.1733 298.02 50.48C297.593 49.7867 296.953 49.44 296.1 49.44C295.247 49.44 294.593 49.7867 294.14 50.48C293.687 51.1733 293.38 52.0667 293.22 53.16C293.06 54.2267 292.98 55.32 292.98 56.44C292.98 57.6667 293.06 58.8133 293.22 59.88C293.407 60.9467 293.727 61.8133 294.18 62.48C294.633 63.12 295.273 63.44 296.1 63.44Z"/>
</mask>
<path d="M296.1 70.56C294.02 70.56 292.18 70 290.58 68.88C289.007 67.76 287.78 66.1467 286.9 64.04C286.02 61.9333 285.58 59.4 285.58 56.44C285.58 53.48 286.02 50.9467 286.9 48.84C287.78 46.7067 289.007 45.0667 290.58 43.92C292.18 42.7733 294.02 42.2 296.1 42.2C298.207 42.2 300.033 42.7733 301.58 43.92C303.153 45.0667 304.38 46.7067 305.26 48.84C306.14 50.9467 306.58 53.48 306.58 56.44C306.58 59.4 306.14 61.9333 305.26 64.04C304.38 66.1467 303.153 67.76 301.58 68.88C300.033 70 298.207 70.56 296.1 70.56ZM296.1 63.44C296.927 63.44 297.553 63.12 297.98 62.48C298.433 61.8133 298.74 60.9467 298.9 59.88C299.087 58.8133 299.18 57.6667 299.18 56.44C299.18 55.32 299.1 54.2267 298.94 53.16C298.78 52.0667 298.473 51.1733 298.02 50.48C297.593 49.7867 296.953 49.44 296.1 49.44C295.247 49.44 294.593 49.7867 294.14 50.48C293.687 51.1733 293.38 52.0667 293.22 53.16C293.06 54.2267 292.98 55.32 292.98 56.44C292.98 57.6667 293.06 58.8133 293.22 59.88C293.407 60.9467 293.727 61.8133 294.18 62.48C294.633 63.12 295.273 63.44 296.1 63.44Z" fill="white"/>
<path d="M290.58 68.88L290 69.6947L290.007 69.6992L290.58 68.88ZM286.9 64.04L285.977 64.4254L286.9 64.04ZM286.9 48.84L287.823 49.2254L287.824 49.2213L286.9 48.84ZM290.58 43.92L289.997 43.1072L289.991 43.1119L290.58 43.92ZM301.58 43.92L300.984 44.7233L300.991 44.7281L301.58 43.92ZM305.26 48.84L304.336 49.2213L304.337 49.2254L305.26 48.84ZM305.26 64.04L306.183 64.4254L305.26 64.04ZM301.58 68.88L301 68.0653L300.993 68.0701L301.58 68.88ZM297.98 62.48L297.153 61.9177L297.148 61.9253L297.98 62.48ZM298.9 59.88L297.915 59.7076L297.913 59.7196L297.911 59.7317L298.9 59.88ZM298.94 53.16L297.951 53.3048L297.951 53.3083L298.94 53.16ZM298.02 50.48L297.168 51.0041L297.176 51.0158L297.183 51.0272L298.02 50.48ZM294.14 50.48L293.303 49.9327L294.14 50.48ZM293.22 53.16L294.209 53.3083L294.209 53.3048L293.22 53.16ZM293.22 59.88L292.231 60.0283L292.233 60.0404L292.235 60.0524L293.22 59.88ZM294.18 62.48L293.353 63.0423L293.358 63.0502L293.364 63.058L294.18 62.48ZM296.1 69.56C294.211 69.56 292.574 69.0553 291.153 68.0608L290.007 69.6992C291.786 70.9447 293.829 71.56 296.1 71.56V69.56ZM291.16 68.0653C289.764 67.072 288.644 65.6207 287.823 63.6546L285.977 64.4254C286.916 66.6726 288.249 68.448 290 69.6947L291.16 68.0653ZM287.823 63.6546C287.006 61.7004 286.58 59.3051 286.58 56.44H284.58C284.58 59.4949 285.034 62.1663 285.977 64.4254L287.823 63.6546ZM286.58 56.44C286.58 53.5749 287.006 51.1796 287.823 49.2254L285.977 48.4546C285.034 50.7137 284.58 53.3851 284.58 56.44H286.58ZM287.824 49.2213C288.647 47.2266 289.77 45.7475 291.169 44.7281L289.991 43.1119C288.243 44.3858 286.913 46.1868 285.976 48.4587L287.824 49.2213ZM291.163 44.7328C292.583 43.715 294.216 43.2 296.1 43.2V41.2C293.824 41.2 291.777 41.8317 289.997 43.1072L291.163 44.7328ZM296.1 43.2C298.014 43.2 299.626 43.7165 300.984 44.7233L302.176 43.1167C300.44 41.8301 298.4 41.2 296.1 41.2V43.2ZM300.991 44.7281C302.39 45.7475 303.513 47.2266 304.336 49.2213L306.184 48.4587C305.247 46.1868 303.917 44.3858 302.169 43.1119L300.991 44.7281ZM304.337 49.2254C305.154 51.1796 305.58 53.5749 305.58 56.44H307.58C307.58 53.3851 307.126 50.7137 306.183 48.4546L304.337 49.2254ZM305.58 56.44C305.58 59.3051 305.154 61.7004 304.337 63.6546L306.183 64.4254C307.126 62.1663 307.58 59.4949 307.58 56.44H305.58ZM304.337 63.6546C303.516 65.6207 302.396 67.072 301 68.0653L302.16 69.6947C303.911 68.448 305.244 66.6726 306.183 64.4254L304.337 63.6546ZM300.993 68.0701C299.635 69.0538 298.019 69.56 296.1 69.56V71.56C298.394 71.56 300.432 70.9462 302.167 69.6899L300.993 68.0701ZM296.1 64.44C297.231 64.44 298.184 63.9767 298.812 63.0347L297.148 61.9253C296.923 62.2633 296.622 62.44 296.1 62.44V64.44ZM298.807 63.0423C299.368 62.217 299.714 61.1957 299.889 60.0283L297.911 59.7317C297.766 60.6977 297.499 61.4097 297.153 61.9177L298.807 63.0423ZM299.885 60.0524C300.083 58.9219 300.18 57.717 300.18 56.44H298.18C298.18 57.6163 298.09 58.7048 297.915 59.7076L299.885 60.0524ZM300.18 56.44C300.18 55.2722 300.097 54.1293 299.929 53.0117L297.951 53.3083C298.103 54.3241 298.18 55.3678 298.18 56.44H300.18ZM299.929 53.0152C299.755 51.8238 299.412 50.781 298.857 49.9328L297.183 51.0272C297.535 51.5657 297.805 52.3095 297.951 53.3048L299.929 53.0152ZM298.872 49.9559C298.253 48.9499 297.28 48.44 296.1 48.44V50.44C296.626 50.44 296.934 50.6234 297.168 51.0041L298.872 49.9559ZM296.1 48.44C294.921 48.44 293.948 48.9468 293.303 49.9327L294.977 51.0272C295.239 50.6265 295.572 50.44 296.1 50.44V48.44ZM293.303 49.9327C292.748 50.781 292.405 51.8238 292.231 53.0152L294.209 53.3048C294.355 52.3095 294.625 51.5657 294.977 51.0272L293.303 49.9327ZM292.231 53.0117C292.063 54.1293 291.98 55.2722 291.98 56.44H293.98C293.98 55.3678 294.057 54.3241 294.209 53.3083L292.231 53.0117ZM291.98 56.44C291.98 57.7097 292.063 58.9064 292.231 60.0283L294.209 59.7317C294.057 58.7202 293.98 57.6236 293.98 56.44H291.98ZM292.235 60.0524C292.438 61.2133 292.798 62.2254 293.353 63.0423L295.007 61.9177C294.656 61.4012 294.375 60.68 294.205 59.7076L292.235 60.0524ZM293.364 63.058C294.016 63.9791 294.97 64.44 296.1 64.44V62.44C295.577 62.44 295.25 62.2609 294.996 61.902L293.364 63.058Z" fill="black" mask="url(#path-4-outside-2_33_64846)"/>
<defs>
<linearGradient id="paint0_linear_33_64846" x1="213" y1="0" x2="213" y2="112" gradientUnits="userSpaceOnUse">
<stop stop-color="#F2BC3E"/>
<stop offset="1" stop-color="#D87E12"/>
</linearGradient>
</defs>
</svg>
